{
	"asset":{
		"generator":"Khronos glTF Blender I/O v4.4.55",
		"version":"2.0"
	},
	"scene":0,
	"scenes":[
		{
			"name":"Scene",
			"nodes":[
				0
			]
		}
	],
	"nodes":[
		{
			"mesh":0,
			"name":"Mesh_0.002"
		}
	],
	"materials":[
		{
			"name":"Material_0.002",
			"pbrMetallicRoughness":{
				"metallicFactor":0
			}
		}
	],
	"meshes":[
		{
			"name":"Mesh_0.002",
			"primitives":[
				{
					"attributes":{
						"POSITION":0,
						"NORMAL":1,
						"TEXCOORD_0":2
					},
					"indices":3,
					"material":0
				}
			]
		}
	],
	"accessors":[
		{
			"bufferView":0,
			"componentType":5126,
			"count":98726,
			"max":[
				0.16263440251350403,
				0.2511591911315918,
				0.2384641468524933
			],
			"min":[
				-0.020454026758670807,
				-0.22149594128131866,
				-0.2735903263092041
			],
			"type":"VEC3"
		},
		{
			"bufferView":1,
			"componentType":5126,
			"count":98726,
			"type":"VEC3"
		},
		{
			"bufferView":2,
			"componentType":5126,
			"count":98726,
			"type":"VEC2"
		},
		{
			"bufferView":3,
			"componentType":5125,
			"count":98736,
			"type":"SCALAR"
		}
	],
	"bufferViews":[
		{
			"buffer":0,
			"byteLength":1184712,
			"byteOffset":0,
			"target":34962
		},
		{
			"buffer":0,
			"byteLength":1184712,
			"byteOffset":1184712,
			"target":34962
		},
		{
			"buffer":0,
			"byteLength":789808,
			"byteOffset":2369424,
			"target":34962
		},
		{
			"buffer":0,
			"byteLength":394944,
			"byteOffset":3159232,
			"target":34963
		}
	],
	"buffers":[
		{
			"byteLength":3554176,
			"uri":"building.bin"
		}
	]
}
